<?xml version="1.0" encoding="UTF-8" standalone="no"?><svg xmlns="http://www.w3.org/2000/svg" xmlns:xlink="http://www.w3.org/1999/xlink" contentScriptType="application/ecmascript" contentStyleType="text/css" height="453.125px" preserveAspectRatio="none" style="width:1356px;height:453px;" version="1.1" viewBox="0 0 1356 453" width="1356.25px" zoomAndPan="magnify"><defs><filter height="300%" id="fcrifmzrsildb" width="300%" x="-1" y="-1"><feGaussianBlur result="blurOut" stdDeviation="6.25"/><feColorMatrix in="blurOut" result="blurOut2" type="matrix" values="0 0 0 0 0 0 0 0 0 0 0 0 0 0 0 0 0 0 .4 0"/><feOffset dx="12.5" dy="12.5" in="blurOut2" result="blurOut3"/><feBlend in="SourceGraphic" in2="blurOut3" mode="normal"/></filter></defs><g><!--entity db1--><path d="M18.75,56.25 C18.75,25 115.625,25 115.625,25 C115.625,25 212.5,25 212.5,56.25 L212.5,135.3027 C212.5,166.5527 115.625,166.5527 115.625,166.5527 C115.625,166.5527 18.75,166.5527 18.75,135.3027 L18.75,56.25 " fill="#FEFECE" filter="url(#fcrifmzrsildb)" style="stroke: #000000; stroke-width: 4.6875;"/><path d="M18.75,56.25 C18.75,87.5 115.625,87.5 115.625,87.5 C115.625,87.5 212.5,87.5 212.5,56.25 " fill="none" style="stroke: #000000; stroke-width: 4.6875;"/><text fill="#000000" font-family="sans-serif" font-size="43.75" lengthAdjust="spacingAndGlyphs" textLength="131.25" x="50" y="140.6097">DB ..1</text><!--entity dbn--><path d="M18.75,306.25 C18.75,275 115.625,275 115.625,275 C115.625,275 212.5,275 212.5,306.25 L212.5,385.3027 C212.5,416.5527 115.625,416.5527 115.625,416.5527 C115.625,416.5527 18.75,416.5527 18.75,385.3027 L18.75,306.25 " fill="#FEFECE" filter="url(#fcrifmzrsildb)" style="stroke: #000000; stroke-width: 4.6875;"/><path d="M18.75,306.25 C18.75,337.5 115.625,337.5 115.625,337.5 C115.625,337.5 212.5,337.5 212.5,306.25 " fill="none" style="stroke: #000000; stroke-width: 4.6875;"/><text fill="#000000" font-family="sans-serif" font-size="43.75" lengthAdjust="spacingAndGlyphs" textLength="131.25" x="50" y="390.6097">DB ..n</text><!--entity Microservice ..1--><rect fill="#FEFECE" filter="url(#fcrifmzrsildb)" height="113.4277" style="stroke: #A80036; stroke-width: 4.6875;" width="396.875" x="400" y="54.6875"/><rect fill="#FEFECE" height="15.625" style="stroke: #A80036; stroke-width: 4.6875;" width="31.25" x="384.375" y="70.3125"/><rect fill="#FEFECE" height="15.625" style="stroke: #A80036; stroke-width: 4.6875;" width="31.25" x="384.375" y="136.8652"/><text fill="#000000" font-family="sans-serif" font-size="43.75" lengthAdjust="spacingAndGlyphs" textLength="334.375" x="431.25" y="126.5472">Microservice ..1</text><!--entity Microservice ..n--><rect fill="#FEFECE" filter="url(#fcrifmzrsildb)" height="113.4277" style="stroke: #A80036; stroke-width: 4.6875;" width="396.875" x="400" y="276.5625"/><rect fill="#FEFECE" height="15.625" style="stroke: #A80036; stroke-width: 4.6875;" width="31.25" x="384.375" y="292.1875"/><rect fill="#FEFECE" height="15.625" style="stroke: #A80036; stroke-width: 4.6875;" width="31.25" x="384.375" y="358.7402"/><text fill="#000000" font-family="sans-serif" font-size="43.75" lengthAdjust="spacingAndGlyphs" textLength="334.375" x="431.25" y="348.4222">Microservice ..n</text><!--entity Eureka--><rect fill="#FEFECE" filter="url(#fcrifmzrsildb)" height="113.4277" style="stroke: #A80036; stroke-width: 4.6875;" width="212.5" x="1046.875" y="54.6875"/><rect fill="#FEFECE" height="15.625" style="stroke: #A80036; stroke-width: 4.6875;" width="31.25" x="1031.25" y="70.3125"/><rect fill="#FEFECE" height="15.625" style="stroke: #A80036; stroke-width: 4.6875;" width="31.25" x="1031.25" y="136.8652"/><text fill="#000000" font-family="sans-serif" font-size="43.75" lengthAdjust="spacingAndGlyphs" textLength="150" x="1078.125" y="126.5472">Eureka</text><!--entity ConfigServer--><rect fill="#FEFECE" filter="url(#fcrifmzrsildb)" height="113.4277" style="stroke: #A80036; stroke-width: 4.6875;" width="337.5" x="984.375" y="276.5625"/><rect fill="#FEFECE" height="15.625" style="stroke: #A80036; stroke-width: 4.6875;" width="31.25" x="968.75" y="292.1875"/><rect fill="#FEFECE" height="15.625" style="stroke: #A80036; stroke-width: 4.6875;" width="31.25" x="968.75" y="358.7402"/><text fill="#000000" font-family="sans-serif" font-size="43.75" lengthAdjust="spacingAndGlyphs" textLength="275" x="1015.625" y="348.4222">ConfigServer</text><!--link db1 to Microservice ..1--><path d="M229.6441,98.9469 C275.5494,100.4531 330.3891,102.25 383.4594,103.9916 " fill="none" id="db1-Microservice ..1" style="stroke: #A80036; stroke-width: 3.125;"/><polygon fill="#A80036" points="399.8594,104.5291,372.1602,91.1118,384.2428,104.0157,371.3389,116.0983,399.8594,104.5291" style="stroke: #A80036; stroke-width: 3.125;"/><polygon fill="#A80036" points="212.9034,98.4,240.6033,111.8159,228.52,98.9125,241.4233,86.8293,212.9034,98.4" style="stroke: #A80036; stroke-width: 3.125;"/><!--link Microservice ..1 to Microservice ..n--><path d="M598.4375,167.8419 C598.4375,204.0534 598.4375,240.2653 598.4375,276.4772 " fill="none" id="Microservice ..1-Microservice ..n" style="stroke: #A80036; stroke-width: 3.125; stroke-dasharray: 7.0,7.0;"/><!--link Eureka to Microservice ..1--><path d="M1029.65,110.9375 C961.8156,110.9375 875.4094,110.9375 798.0125,110.9375 " fill="none" id="Eureka-Microservice ..1" style="stroke: #A80036; stroke-width: 3.125;"/><polygon fill="#A80036" points="1045.5938,110.9375,1017.4687,98.4375,1029.9688,110.9375,1017.4687,123.4375,1045.5938,110.9375" style="stroke: #A80036; stroke-width: 3.125;"/><!--link Microservice ..n to Eureka--><path d="M741.375,276.25 C831.3781,239.8391 947.0406,193.0463 1032.3281,158.5431 " fill="none" id="Microservice ..n-Eureka" style="stroke: #A80036; stroke-width: 3.125;"/><polygon fill="#A80036" points="1046.8125,152.6828,1016.0526,151.6378,1032.327,158.5402,1025.4245,174.8146,1046.8125,152.6828" style="stroke: #A80036; stroke-width: 3.125;"/><!--link ConfigServer to Microservice ..1--><path d="M995.7313,270.4019 C915.85,238.085 819.0531,198.9256 741.375,167.5 " fill="none" id="ConfigServer-Microservice ..1" style="stroke: #A80036; stroke-width: 3.125;"/><polygon fill="#A80036" points="1010.4437,276.3531,989.0618,254.2154,995.9598,270.4917,979.6835,277.3897,1010.4437,276.3531" style="stroke: #A80036; stroke-width: 3.125;"/><!--link Microservice ..n to ConfigServer--><path d="M798.0125,332.8125 C853.1625,332.8125 912.8906,332.8125 967.2125,332.8125 " fill="none" id="Microservice ..n-ConfigServer" style="stroke: #A80036; stroke-width: 3.125;"/><polygon fill="#A80036" points="983.8875,332.8125,955.7625,320.3125,968.2625,332.8125,955.7625,345.3125,983.8875,332.8125" style="stroke: #A80036; stroke-width: 3.125;"/><!--link dbn to Microservice ..n--><path d="M229.6441,342.4038 C275.5494,341.1997 330.3891,339.7613 383.4594,338.3694 " fill="none" id="dbn-Microservice ..n" style="stroke: #A80036; stroke-width: 3.125;"/><polygon fill="#A80036" points="399.8594,337.9391,371.4155,326.1827,384.2398,338.3498,372.0727,351.174,399.8594,337.9391" style="stroke: #A80036; stroke-width: 3.125;"/><polygon fill="#A80036" points="212.9034,342.8428,241.3466,354.6008,228.5231,342.433,240.6909,329.6094,212.9034,342.8428" style="stroke: #A80036; stroke-width: 3.125;"/><!--
@startuml
left to right direction
skinparam packageStyle rectangle
skinparam backgroundColor transparent
skinparam dpi 300

database "DB ..1" as db1
database "DB ..n" as dbn
db1 <- -> [Microservice ..1]
[Microservice ..1] . [Microservice ..n]
[Eureka] <- - [Microservice ..1]
[Microservice ..n] - -> [Eureka]
[ConfigServer] <- - [Microservice ..1]
[Microservice ..n] - -> [ConfigServer]
dbn <- -> [Microservice ..n]
@enduml

PlantUML version 1.2018.07beta8(Unknown compile time)
(GPL source distribution)
Java Runtime: Java(TM) SE Runtime Environment
JVM: Java HotSpot(TM) 64-Bit Server VM
Java Version: 1.7.0_25-b15
Operating System: Linux
Default Encoding: UTF-8
Language: en
Country: US
--></g></svg>