<?xml version="1.0" encoding="UTF-8" standalone="no"?><svg xmlns="http://www.w3.org/2000/svg" xmlns:xlink="http://www.w3.org/1999/xlink" contentScriptType="application/ecmascript" contentStyleType="text/css" height="815.625px" preserveAspectRatio="none" style="width:1525px;height:815px;" version="1.1" viewBox="0 0 1525 815" width="1525px" zoomAndPan="magnify"><defs><filter height="300%" id="fejns8nqnz7du" width="300%" x="-1" y="-1"><feGaussianBlur result="blurOut" stdDeviation="6.25"/><feColorMatrix in="blurOut" result="blurOut2" type="matrix" values="0 0 0 0 0 0 0 0 0 0 0 0 0 0 0 0 0 0 .4 0"/><feOffset dx="12.5" dy="12.5" in="blurOut2" result="blurOut3"/><feBlend in="SourceGraphic" in2="blurOut3" mode="normal"/></filter></defs><g><path d="M606.25,526.5625 C606.25,517.1875 612.5,510.9375 621.875,510.9375 C631.25,510.9375 637.5,517.1875 637.5,526.5625 C637.5,517.1875 643.75,510.9375 653.125,510.9375 C662.5,510.9375 668.75,517.1875 668.75,526.5625 C668.75,517.1875 675,510.9375 684.375,510.9375 C693.75,510.9375 700,517.1875 700,526.5625 C700,517.1875 706.25,510.9375 715.625,510.9375 C725,510.9375 731.25,517.1875 731.25,526.5625 C731.25,517.1875 737.5,510.9375 746.875,510.9375 C756.25,510.9375 762.5,517.1875 762.5,526.5625 C762.5,517.1875 768.75,510.9375 778.125,510.9375 C787.5,510.9375 793.75,517.1875 793.75,526.5625 C793.75,517.1875 800,510.9375 809.375,510.9375 C818.75,510.9375 825,517.1875 825,526.5625 C825,517.1875 831.25,510.9375 840.625,510.9375 C850,510.9375 856.25,517.1875 856.25,526.5625 C856.25,517.1875 862.5,510.9375 871.875,510.9375 C881.25,510.9375 887.5,517.1875 887.5,526.5625 C887.5,517.1875 893.75,510.9375 903.125,510.9375 C912.5,510.9375 918.75,517.1875 918.75,526.5625 C928.125,526.5625 934.375,532.8125 934.375,542.1875 C934.375,551.5625 928.125,557.8125 918.75,557.8125 C928.125,557.8125 934.375,564.0625 934.375,573.4375 C934.375,582.8125 928.125,589.0625 918.75,589.0625 C928.125,589.0625 934.375,595.3125 934.375,604.6875 C934.375,614.0625 928.125,620.3125 918.75,620.3125 C928.125,620.3125 934.375,626.5625 934.375,635.9375 C934.375,645.3125 928.125,651.5625 918.75,651.5625 C928.125,651.5625 934.375,657.8125 934.375,667.1875 C934.375,676.5625 928.125,682.8125 918.75,682.8125 C918.75,692.1875 909.375,698.4375 903.125,698.4375 C893.75,698.4375 887.5,692.1875 887.5,682.8125 C887.5,692.1875 878.125,698.4375 871.875,698.4375 C862.5,698.4375 856.25,692.1875 856.25,682.8125 C856.25,692.1875 846.875,698.4375 840.625,698.4375 C831.25,698.4375 825,692.1875 825,682.8125 C825,692.1875 815.625,698.4375 809.375,698.4375 C800,698.4375 793.75,692.1875 793.75,682.8125 C793.75,692.1875 784.375,698.4375 778.125,698.4375 C768.75,698.4375 762.5,692.1875 762.5,682.8125 C762.5,692.1875 753.125,698.4375 746.875,698.4375 C737.5,698.4375 731.25,692.1875 731.25,682.8125 C731.25,692.1875 721.875,698.4375 715.625,698.4375 C706.25,698.4375 700,692.1875 700,682.8125 C700,692.1875 690.625,698.4375 684.375,698.4375 C675,698.4375 668.75,692.1875 668.75,682.8125 C668.75,692.1875 659.375,698.4375 653.125,698.4375 C643.75,698.4375 637.5,692.1875 637.5,682.8125 C637.5,692.1875 628.125,698.4375 621.875,698.4375 C612.5,698.4375 606.25,692.1875 606.25,682.8125 C596.875,682.8125 590.625,676.5625 590.625,667.1875 C590.625,657.8125 596.875,651.5625 606.25,651.5625 C596.875,651.5625 590.625,645.3125 590.625,635.9375 C590.625,626.5625 596.875,620.3125 606.25,620.3125 C596.875,620.3125 590.625,614.0625 590.625,604.6875 C590.625,595.3125 596.875,589.0625 606.25,589.0625 C596.875,589.0625 590.625,582.8125 590.625,573.4375 C590.625,564.0625 596.875,557.8125 606.25,557.8125 C596.875,557.8125 590.625,551.5625 590.625,542.1875 C590.625,532.8125 596.875,526.5625 606.25,526.5625 " fill="#FFFFFF" filter="url(#fejns8nqnz7du)" style="stroke: #000000; stroke-width: 4.6875;"/><!--entity I--><rect fill="#FEFECE" filter="url(#fejns8nqnz7du)" height="113.4277" style="stroke: #A80036; stroke-width: 4.6875;" width="240.625" x="646.875" y="554.6875"/><rect fill="#FEFECE" height="15.625" style="stroke: #A80036; stroke-width: 4.6875;" width="31.25" x="631.25" y="570.3125"/><rect fill="#FEFECE" height="15.625" style="stroke: #A80036; stroke-width: 4.6875;" width="31.25" x="631.25" y="636.8652"/><text fill="#000000" font-family="sans-serif" font-size="43.75" lengthAdjust="spacingAndGlyphs" textLength="178.125" x="678.125" y="626.5472">API Rest</text><!--entity U--><ellipse cx="200" cy="556.25" fill="#FEFECE" filter="url(#fejns8nqnz7du)" rx="25" ry="25" style="stroke: #A80036; stroke-width: 6.25;"/><path d="M200,581.25 L200,665.625 M159.375,606.25 L240.625,606.25 M200,665.625 L159.375,712.5 M200,665.625 L240.625,712.5 " fill="none" filter="url(#fejns8nqnz7du)" style="stroke: #A80036; stroke-width: 6.25;"/><text fill="#000000" font-family="sans-serif" font-size="43.75" lengthAdjust="spacingAndGlyphs" textLength="362.5" x="18.75" y="774.9847">Third party users</text><!--entity db1--><path d="M103.125,56.25 C103.125,25 200,25 200,25 C200,25 296.875,25 296.875,56.25 L296.875,135.3027 C296.875,166.5527 200,166.5527 200,166.5527 C200,166.5527 103.125,166.5527 103.125,135.3027 L103.125,56.25 " fill="#FEFECE" filter="url(#fejns8nqnz7du)" style="stroke: #000000; stroke-width: 4.6875;"/><path d="M103.125,56.25 C103.125,87.5 200,87.5 200,87.5 C200,87.5 296.875,87.5 296.875,56.25 " fill="none" style="stroke: #000000; stroke-width: 4.6875;"/><text fill="#000000" font-family="sans-serif" font-size="43.75" lengthAdjust="spacingAndGlyphs" textLength="131.25" x="134.375" y="140.6097">DB ..1</text><!--entity dbn--><path d="M103.125,306.25 C103.125,275 200,275 200,275 C200,275 296.875,275 296.875,306.25 L296.875,385.3027 C296.875,416.5527 200,416.5527 200,416.5527 C200,416.5527 103.125,416.5527 103.125,385.3027 L103.125,306.25 " fill="#FEFECE" filter="url(#fejns8nqnz7du)" style="stroke: #000000; stroke-width: 4.6875;"/><path d="M103.125,306.25 C103.125,337.5 200,337.5 200,337.5 C200,337.5 296.875,337.5 296.875,306.25 " fill="none" style="stroke: #000000; stroke-width: 4.6875;"/><text fill="#000000" font-family="sans-serif" font-size="43.75" lengthAdjust="spacingAndGlyphs" textLength="131.25" x="134.375" y="390.6097">DB ..n</text><!--entity Microservice ..1--><rect fill="#FEFECE" filter="url(#fejns8nqnz7du)" height="113.4277" style="stroke: #A80036; stroke-width: 4.6875;" width="396.875" x="568.75" y="67.1875"/><rect fill="#FEFECE" height="15.625" style="stroke: #A80036; stroke-width: 4.6875;" width="31.25" x="553.125" y="82.8125"/><rect fill="#FEFECE" height="15.625" style="stroke: #A80036; stroke-width: 4.6875;" width="31.25" x="553.125" y="149.3652"/><text fill="#000000" font-family="sans-serif" font-size="43.75" lengthAdjust="spacingAndGlyphs" textLength="334.375" x="600" y="139.0472">Microservice ..1</text><!--entity Microservice ..n--><rect fill="#FEFECE" filter="url(#fejns8nqnz7du)" height="113.4277" style="stroke: #A80036; stroke-width: 4.6875;" width="396.875" x="568.75" y="289.0625"/><rect fill="#FEFECE" height="15.625" style="stroke: #A80036; stroke-width: 4.6875;" width="31.25" x="553.125" y="304.6875"/><rect fill="#FEFECE" height="15.625" style="stroke: #A80036; stroke-width: 4.6875;" width="31.25" x="553.125" y="371.2402"/><text fill="#000000" font-family="sans-serif" font-size="43.75" lengthAdjust="spacingAndGlyphs" textLength="334.375" x="600" y="360.9222">Microservice ..n</text><!--entity Eureka--><rect fill="#FEFECE" filter="url(#fejns8nqnz7du)" height="113.4277" style="stroke: #A80036; stroke-width: 4.6875;" width="212.5" x="1215.625" y="289.0625"/><rect fill="#FEFECE" height="15.625" style="stroke: #A80036; stroke-width: 4.6875;" width="31.25" x="1200" y="304.6875"/><rect fill="#FEFECE" height="15.625" style="stroke: #A80036; stroke-width: 4.6875;" width="31.25" x="1200" y="371.2402"/><text fill="#000000" font-family="sans-serif" font-size="43.75" lengthAdjust="spacingAndGlyphs" textLength="150" x="1246.875" y="360.9222">Eureka</text><!--entity ConfigServer--><rect fill="#FEFECE" filter="url(#fejns8nqnz7du)" height="113.4277" style="stroke: #A80036; stroke-width: 4.6875;" width="337.5" x="1153.125" y="67.1875"/><rect fill="#FEFECE" height="15.625" style="stroke: #A80036; stroke-width: 4.6875;" width="31.25" x="1137.5" y="82.8125"/><rect fill="#FEFECE" height="15.625" style="stroke: #A80036; stroke-width: 4.6875;" width="31.25" x="1137.5" y="149.3652"/><text fill="#000000" font-family="sans-serif" font-size="43.75" lengthAdjust="spacingAndGlyphs" textLength="275" x="1184.375" y="139.0472">ConfigServer</text><!--link db1 to Microservice ..1--><path d="M313.0588,100.825 C381.1656,104.2406 470.9031,108.7375 552.3813,112.825 " fill="none" id="db1-Microservice ..1" style="stroke: #A80036; stroke-width: 3.125;"/><polygon fill="#A80036" points="568.5594,113.6344,541.0945,99.7439,552.9539,112.8532,539.8446,124.7126,568.5594,113.6344" style="stroke: #A80036; stroke-width: 3.125;"/><polygon fill="#A80036" points="297.0134,100.0188,324.4767,113.9124,312.6188,100.8017,325.7295,88.9438,297.0134,100.0188" style="stroke: #A80036; stroke-width: 3.125;"/><!--link Microservice ..1 to Microservice ..n--><path d="M767.1875,180.3406 C767.1875,216.5531 767.1875,252.7656 767.1875,288.9781 " fill="none" id="Microservice ..1-Microservice ..n" style="stroke: #A80036; stroke-width: 3.125; stroke-dasharray: 7.0,7.0;"/><!--link Eureka to Microservice ..1--><path d="M1200.825,297.6063 C1120.1469,264.9656 1012.375,221.3656 924.8438,185.9531 " fill="none" id="Eureka-Microservice ..1" style="stroke: #A80036; stroke-width: 3.125;"/><polygon fill="#A80036" points="910.125,180,931.5057,202.1389,924.6086,185.8622,940.8853,178.9651,910.125,180" style="stroke: #A80036; stroke-width: 3.125;"/><polygon fill="#A80036" points="1215.5625,303.5687,1194.1735,281.4378,1201.0767,297.7119,1184.8026,304.6151,1215.5625,303.5687" style="stroke: #A80036; stroke-width: 3.125;"/><!--link Microservice ..n to Eureka--><path d="M982.5531,345.3125 C1055.825,345.3125 1135.325,345.3125 1198.6156,345.3125 " fill="none" id="Microservice ..n-Eureka" style="stroke: #A80036; stroke-width: 3.125;"/><polygon fill="#A80036" points="1214.3438,345.3125,1186.2188,332.8125,1198.7188,345.3125,1186.2188,357.8125,1214.3438,345.3125" style="stroke: #A80036; stroke-width: 3.125;"/><polygon fill="#A80036" points="966.7625,345.3125,994.8875,357.8125,982.3875,345.3125,994.8875,332.8125,966.7625,345.3125" style="stroke: #A80036; stroke-width: 3.125;"/><!--link ConfigServer to Microservice ..1--><path d="M1152.6375,123.4375 C1099.0813,123.4375 1038.9781,123.4375 982.5656,123.4375 " fill="none" id="ConfigServer-Microservice ..1" style="stroke: #A80036; stroke-width: 3.125;"/><polygon fill="#A80036" points="966.7625,123.4375,994.8875,135.9375,982.3875,123.4375,994.8875,110.9375,966.7625,123.4375" style="stroke: #A80036; stroke-width: 3.125;"/><!--link Microservice ..n to ConfigServer--><path d="M924.8438,282.7969 C1004.7625,250.4625 1101.5562,211.3062 1179.1938,179.8969 " fill="none" id="Microservice ..n-ConfigServer" style="stroke: #A80036; stroke-width: 3.125;"/><polygon fill="#A80036" points="910.125,288.75,940.8853,289.7849,924.6086,282.8878,931.5057,266.6111,910.125,288.75" style="stroke: #A80036; stroke-width: 3.125;"/><!--link dbn to Microservice ..n--><path d="M313.0588,345.3125 C381.1656,345.3125 470.9031,345.3125 552.3813,345.3125 " fill="none" id="dbn-Microservice ..n" style="stroke: #A80036; stroke-width: 3.125;"/><polygon fill="#A80036" points="568.5594,345.3125,540.4344,332.8125,552.9344,345.3125,540.4344,357.8125,568.5594,345.3125" style="stroke: #A80036; stroke-width: 3.125;"/><polygon fill="#A80036" points="297.0134,345.3125,325.1384,357.8125,312.6384,345.3125,325.1384,332.8125,297.0134,345.3125" style="stroke: #A80036; stroke-width: 3.125;"/><!--link I to Eureka--><path d="M943.8688,526.8791 C1012.6281,493.5763 1091.1938,455.525 1158.5813,422.8875 " fill="none" id="I-Eureka" style="stroke: #A80036; stroke-width: 3.125;"/><polygon fill="none" points="1149.7688,402.85,1215.5531,395.2938,1168.8375,442.225,1149.7688,402.85" style="stroke: #A80036; stroke-width: 3.125;"/><polygon fill="none" points="952.4063,547.0491,886.6219,554.6053,933.3375,507.6741,952.4063,547.0491" style="stroke: #A80036; stroke-width: 3.125;"/><!--link U to I--><path d="M398.5469,639.4456 C475.1656,633.4697 561.1344,626.7647 630.4406,621.3591 " fill="none" id="U-I" style="stroke: #A80036; stroke-width: 3.125;"/><polygon fill="#A80036" points="646.775,620.0853,617.7607,609.8171,631.1976,621.304,619.7107,634.7409,646.775,620.0853" style="stroke: #A80036; stroke-width: 3.125;"/><polygon fill="#A80036" points="382.15,640.7244,411.1614,651.0008,397.7277,639.5101,409.2185,626.0765,382.15,640.7244" style="stroke: #A80036; stroke-width: 3.125;"/><!--
@startuml
left to right direction
skinparam packageStyle rectangle
skinparam backgroundColor transparent
skinparam dpi 300

actor "Third party users" as U
cloud {
component "API Rest" as I
}
database "DB ..1" as db1
database "DB ..n" as dbn

db1 <- -> [Microservice ..1]
[Microservice ..1] . [Microservice ..n]
[Eureka] <- -> [Microservice ..1]
[Microservice ..n] <- -> [Eureka]
[ConfigServer] - -> [Microservice ..1]
[Microservice ..n] <- - [ConfigServer]
dbn <- -> [Microservice ..n]  


I <|- -|> [Eureka]
U <- ->  I
@enduml

PlantUML version 1.2018.07beta8(Unknown compile time)
(GPL source distribution)
Java Runtime: Java(TM) SE Runtime Environment
JVM: Java HotSpot(TM) 64-Bit Server VM
Java Version: 1.7.0_25-b15
Operating System: Linux
Default Encoding: UTF-8
Language: en
Country: US
--></g></svg>